<svg id="Capa_1" enable-background="new 0 0 512 512" height="512" viewBox="0 0 512 512" width="512" xmlns="http://www.w3.org/2000/svg"><g><path d="m467 136h-75v-45c0-24.813-20.187-45-45-45h-302c-24.813 0-45 20.187-45 45v270c0 6.067 3.655 11.537 9.26 13.858 5.606 2.321 12.057 1.038 16.347-3.252l55.606-55.606h39.787v45c0 24.813 20.187 45 45 45h264.787l55.607 55.606c4.297 4.298 10.752 5.569 16.347 3.252 5.605-2.322 9.26-7.792 9.26-13.858v-270c-.001-24.813-20.188-45-45.001-45zm-392 150c-3.978 0-7.793 1.581-10.606 4.394l-34.394 34.392v-233.786c0-8.271 6.729-15 15-15h302c8.271 0 15 6.729 15 15v45h-196c-24.813 0-45 20.187-45 45v105zm407 128.786-34.394-34.393c-2.813-2.813-6.628-4.393-10.606-4.393h-271c-8.271 0-15-6.729-15-15v-180c0-8.271 6.729-15 15-15h301c8.271 0 15 6.729 15 15z"/><path d="m256 226h121c8.284 0 15-6.716 15-15s-6.716-15-15-15h-121c-8.284 0-15 6.716-15 15s6.716 15 15 15z"/><path d="m407 256h-181c-8.284 0-15 6.716-15 15s6.716 15 15 15h181c8.284 0 15-6.716 15-15s-6.716-15-15-15z"/><path d="m377 316h-121c-8.284 0-15 6.716-15 15s6.716 15 15 15h121c8.284 0 15-6.716 15-15s-6.716-15-15-15z"/></g></svg>